<svg width="1728" height="1117" viewBox="0 0 1728 1117" fill="none" xmlns="http://www.w3.org/2000/svg">
<g clip-path="url(#clip0_49_647)">
<path d="M344.593 783.477C233.285 900.915 111.636 976.405 2.05501 996.037L0.753019 991.859C109.576 972.362 230.526 897.244 341.326 780.343L344.593 783.477Z" fill="#68B4E0"/>
<path d="M1690.1 -35.7709C1704.01 40.4189 1706.58 124.123 1697.45 208.11C1686.17 311.971 1658.13 408.483 1616.37 487.211L1612.3 485.264C1653.86 406.916 1681.76 310.832 1693 207.401C1703.15 113.931 1698.76 20.8196 1680.34 -61.8353L1684.73 -62.2988C1686.67 -53.57 1688.47 -44.7274 1690.1 -35.7709Z" fill="#68B4E0"/>
<path d="M891.859 810.61C875.466 830.497 859.393 851.329 844.086 872.526C756 994.507 693.847 1126.06 664.351 1252.99L660.24 1251.47C689.852 1124.08 752.204 992.068 840.565 869.707C855.916 848.45 872.035 827.559 888.474 807.616L891.859 810.61Z" fill="#68B4E0"/>
<path d="M1162.51 306.725C1155.51 383.858 1135.56 465.19 1104.27 543.665C1065.58 640.709 1012.72 726.185 951.403 790.852L948 787.886C1009.02 723.53 1061.64 638.431 1100.17 541.788C1134.99 454.454 1155.7 363.569 1160.09 279L1164.44 279.728C1163.98 288.659 1163.34 297.659 1162.51 306.725Z" fill="#68B4E0"/>
<path d="M1146.99 172.222L1142.76 172.685C1123.92 98.6413 1087.38 47.3447 1037.11 24.3396C973.204 -4.90384 894.181 14.7337 814.597 79.6357C734.608 144.869 663.797 247.909 615.21 369.78L611.108 367.904C659.909 245.5 731.083 141.962 811.52 76.3663C892.36 10.4388 972.997 -9.3427 1038.58 20.6665C1090.29 44.3307 1127.78 96.738 1146.99 172.222Z" fill="#68B4E0"/>
<path d="M1274.2 827.855C1259.28 848.874 1244.76 870.813 1231.02 893.061C1151.98 1021.09 1099.5 1156.79 1079.25 1285.52L1075.04 1284.31C1095.37 1155.11 1148.02 1018.93 1227.31 890.504C1241.08 868.194 1255.65 846.193 1270.6 825.113L1274.2 827.855Z" fill="#68B4E0"/>
<path d="M574.186 500.148H517.678C516.471 500.151 515.278 499.88 514.191 499.356C513.103 498.833 512.148 498.069 511.397 497.124C510.656 496.203 510.133 495.126 509.867 493.973C509.602 492.821 509.601 491.623 509.864 490.471C515.246 466.73 514.908 442.051 508.878 418.467C508.497 416.914 508.589 415.282 509.143 413.782C509.697 412.282 510.687 410.983 511.987 410.05C541.043 389.158 563.926 389.764 580.001 411.855C580.726 412.862 581.207 414.023 581.407 415.247C585.702 441.06 585.94 467.385 582.112 493.271C581.846 495.182 580.896 496.931 579.439 498.196C577.982 499.46 576.116 500.154 574.186 500.148Z" fill="#E6E6E6"/>
<path d="M556.667 443.575H537.228C536.153 443.575 535.122 443.149 534.362 442.389C533.602 441.629 533.175 440.598 533.175 439.524C533.175 438.449 533.602 437.418 534.362 436.658C535.122 435.899 536.153 435.472 537.228 435.472H556.667C557.741 435.474 558.77 435.902 559.528 436.661C560.286 437.421 560.712 438.45 560.712 439.524C560.712 440.597 560.286 441.626 559.528 442.386C558.77 443.145 557.741 443.573 556.667 443.575Z" fill="white"/>
<path d="M556.667 457.786H537.228C536.153 457.786 535.122 457.359 534.362 456.599C533.602 455.839 533.175 454.809 533.175 453.734C533.175 452.659 533.602 451.629 534.362 450.869C535.122 450.109 536.153 449.682 537.228 449.682H556.667C557.741 449.684 558.77 450.112 559.528 450.872C560.286 451.632 560.712 452.661 560.712 453.734C560.712 454.807 560.286 455.837 559.528 456.596C558.77 457.356 557.741 457.784 556.667 457.786Z" fill="white"/>
<path d="M556.667 471.996H537.228C536.153 471.996 535.122 471.569 534.362 470.809C533.602 470.05 533.175 469.019 533.175 467.944C533.175 466.87 533.602 465.839 534.362 465.079C535.122 464.319 536.153 463.892 537.228 463.892H556.667C557.741 463.895 558.77 464.323 559.528 465.082C560.286 465.842 560.712 466.871 560.712 467.944C560.712 469.018 560.286 470.047 559.528 470.806C558.77 471.566 557.741 471.994 556.667 471.996Z" fill="white"/>
<path d="M1601.17 752.382H1544.66C1543.46 752.385 1542.27 752.114 1541.18 751.59C1540.09 751.066 1539.13 750.303 1538.38 749.358C1537.64 748.436 1537.12 747.359 1536.85 746.207C1536.59 745.055 1536.59 743.857 1536.85 742.704C1542.23 718.964 1541.89 694.285 1535.86 670.7C1535.48 669.147 1535.58 667.516 1536.13 666.016C1536.68 664.516 1537.67 663.216 1538.97 662.284C1568.03 641.391 1590.91 641.998 1606.99 664.089C1607.71 665.096 1608.19 666.257 1608.39 667.481C1612.69 693.294 1612.93 719.619 1609.1 745.505C1608.83 747.416 1607.88 749.165 1606.43 750.429C1604.97 751.694 1603.1 752.387 1601.17 752.382Z" fill="#E6E6E6"/>
<path d="M1583.65 695.809H1564.21C1563.14 695.807 1562.11 695.379 1561.35 694.619C1560.6 693.86 1560.17 692.83 1560.17 691.757C1560.17 690.684 1560.6 689.655 1561.35 688.895C1562.11 688.135 1563.14 687.708 1564.21 687.705H1583.65C1584.73 687.705 1585.76 688.132 1586.52 688.892C1587.28 689.652 1587.71 690.683 1587.71 691.757C1587.71 692.832 1587.28 693.863 1586.52 694.622C1585.76 695.382 1584.73 695.809 1583.65 695.809Z" fill="white"/>
<path d="M1583.65 710.02H1564.21C1563.14 710.017 1562.11 709.589 1561.35 708.83C1560.6 708.07 1560.17 707.041 1560.17 705.968C1560.17 704.894 1560.6 703.865 1561.35 703.105C1562.11 702.346 1563.14 701.918 1564.21 701.916H1583.65C1584.73 701.916 1585.76 702.343 1586.52 703.102C1587.28 703.862 1587.71 704.893 1587.71 705.968C1587.71 707.042 1587.28 708.073 1586.52 708.833C1585.76 709.593 1584.73 710.02 1583.65 710.02Z" fill="white"/>
<path d="M1583.65 724.23H1564.21C1563.14 724.228 1562.11 723.8 1561.35 723.04C1560.6 722.28 1560.17 721.251 1560.17 720.178C1560.17 719.105 1560.6 718.075 1561.35 717.316C1562.11 716.556 1563.14 716.128 1564.21 716.126H1583.65C1584.73 716.126 1585.76 716.553 1586.52 717.313C1587.28 718.073 1587.71 719.103 1587.71 720.178C1587.71 721.253 1587.28 722.283 1586.52 723.043C1585.76 723.803 1584.73 724.23 1583.65 724.23Z" fill="white"/>
<path d="M1763.23 1183.02C1763.15 1183.26 1763.08 1183.41 1763.02 1183.5H-51.016C-51.0727 1183.41 -51.1463 1183.25 -51.2292 1182.99C-51.3997 1182.47 -51.5734 1181.66 -51.7437 1180.57C-52.0833 1178.4 -52.3975 1175.2 -52.6649 1171.08C-53.1993 1162.84 -53.5 1151.66 -53.5 1140C-53.5 1128.34 -53.1993 1117.16 -52.6649 1108.92C-52.3975 1104.8 -52.0833 1101.59 -51.7437 1099.43C-51.5734 1098.34 -51.3997 1097.53 -51.2292 1097.01C-51.1464 1096.75 -51.0727 1096.59 -51.016 1096.5H1763.02C1763.08 1096.59 1763.15 1096.74 1763.23 1096.98C1763.4 1097.5 1763.57 1098.3 1763.75 1099.39C1764.09 1101.57 1764.4 1104.8 1764.67 1108.88C1764.93 1112.96 1765.14 1117.81 1765.29 1123.15C1765.43 1128.49 1765.5 1134.22 1765.5 1140C1765.5 1145.78 1765.43 1151.5 1765.29 1156.84C1765.14 1162.19 1764.93 1167.04 1764.67 1171.12C1764.4 1175.2 1764.09 1178.42 1763.74 1180.61C1763.57 1181.7 1763.4 1182.5 1763.23 1183.02ZM-50.9718 1183.56C-50.9718 1183.56 -50.9744 1183.56 -50.9794 1183.55C-50.9743 1183.56 -50.9717 1183.56 -50.9718 1183.56ZM-50.9719 1096.44C-50.9718 1096.44 -50.9744 1096.44 -50.9795 1096.45C-50.9745 1096.44 -50.9719 1096.44 -50.9719 1096.44ZM1762.98 1096.44C1762.98 1096.44 1762.98 1096.44 1762.99 1096.45C1762.98 1096.44 1762.98 1096.44 1762.98 1096.44Z" fill="#8793A6" stroke="black"/>
<path d="M821.477 968.465L817.952 919.46C794.866 907.922 769.311 902.193 743.507 902.77C779.809 930.823 776.902 986.891 802.043 1025.26C809.977 1037.17 820.488 1047.14 832.8 1054.43C845.111 1061.73 858.907 1066.16 873.164 1067.4L903.377 1084.78C906.833 1061.94 905.296 1038.63 898.872 1016.44C892.447 994.255 881.288 973.726 866.163 956.268C857.581 946.558 847.81 937.967 837.081 930.698C830.477 949.653 821.477 968.465 821.477 968.465Z" fill="#7D6929"/>
<path d="M1460.52 975.57L1464.05 926.565C1487.13 915.027 1512.69 909.298 1538.49 909.875C1502.19 937.928 1505.1 993.996 1479.96 1032.37C1472.02 1044.28 1461.51 1054.25 1449.2 1061.54C1436.89 1068.83 1423.09 1073.26 1408.84 1074.5L1378.62 1091.88C1375.17 1069.04 1376.7 1045.73 1383.13 1023.55C1389.55 1001.36 1400.71 980.832 1415.84 963.373C1424.42 953.663 1434.19 945.072 1444.92 937.803C1451.52 956.758 1460.52 975.57 1460.52 975.57Z" fill="#7D6929"/>
<path d="M973.954 484.502L923.046 404.577L981.996 373.015L997.469 433.994L1106.48 492.887C1110.79 491.339 1115.45 491.076 1119.9 492.13C1124.35 493.184 1128.4 495.511 1131.55 498.825C1134.7 502.14 1136.82 506.299 1137.65 510.797C1138.48 515.294 1137.98 519.935 1136.21 524.154C1134.45 528.372 1131.49 531.987 1127.71 534.555C1123.92 537.124 1119.47 538.537 1114.9 538.621C1110.33 538.705 1105.83 537.456 1101.95 535.028C1098.07 532.6 1094.99 529.097 1093.07 524.946L973.954 484.502Z" fill="#A0616A"/>
<path d="M885.853 308.714C869.857 332.192 926.701 417.534 926.701 417.534C929.47 411.567 955.942 478.579 960.376 474.62C972.977 463.37 992.703 432.031 1003.67 430.634C1009.94 429.835 989.125 385.377 989.125 385.377C989.125 385.377 979.612 359.124 966.705 325.589C963.231 316.041 957.398 307.526 949.748 300.837C942.097 294.149 932.878 289.504 922.949 287.336C922.949 287.336 901.848 285.236 885.853 308.714Z" fill="#3F3D56"/>
<path d="M886.634 1073.65L910.811 1073.65L922.312 980.417L886.629 980.419L886.634 1073.65Z" fill="#A0616A"/>
<path d="M880.466 1065.76L887.271 1065.76L913.84 1054.95L928.08 1065.75H928.082C936.129 1065.75 943.846 1068.95 949.537 1074.64C955.227 1080.33 958.424 1088.04 958.425 1096.09V1097.07L880.467 1097.08L880.466 1065.76Z" fill="#2F2E41"/>
<path d="M998.956 1073.65L1023.13 1073.65L1034.64 980.417L998.952 980.419L998.956 1073.65Z" fill="#A0616A"/>
<path d="M992.789 1065.76L999.594 1065.76L1026.16 1054.95L1040.4 1065.75H1040.4C1048.45 1065.75 1056.17 1068.95 1061.86 1074.64C1067.55 1080.33 1070.75 1088.04 1070.75 1096.09V1097.07L992.79 1097.08L992.789 1065.76Z" fill="#2F2E41"/>
<path d="M1009.42 563.96L852.162 567.89C822.295 584.108 821.842 619.209 831.628 660.883C831.628 660.883 828.324 685.653 834.931 692.259C841.539 698.864 844.842 698.864 841.539 710.424C838.235 721.983 855.69 740.863 853.57 742.982C851.45 745.102 846.494 756.661 846.494 756.661L863.012 850.788C863.012 850.788 874.575 1014.27 877.878 1017.57C881.182 1020.88 884.486 1017.57 881.182 1025.83C877.878 1034.09 874.575 1030.78 877.878 1034.09C880.805 1037.24 883.562 1040.55 886.137 1043.99H926.073C926.073 1043.99 929.084 1027.48 929.084 1025.83C929.084 1024.18 932.388 1014.27 932.388 1012.62C932.388 1010.97 929.468 1008.05 929.468 1008.05C928.459 1004.69 927.777 1001.25 927.433 997.757C927.433 994.454 917.522 867.301 917.522 867.301L937.343 702.167L985.246 863.998C985.246 863.998 985.246 1006.01 988.549 1009.32C991.853 1012.62 991.853 1010.97 990.201 1017.57C988.549 1024.18 981.942 1022.53 986.898 1027.48C991.853 1032.44 993.505 1024.18 991.853 1032.44L990.201 1040.69L1039.76 1041.4C1039.76 1041.4 1046.36 1027.48 1043.06 1022.53C1039.76 1017.57 1039.95 1018.93 1043.98 1010.82C1048.01 1002.71 1049.67 1001.06 1048.01 999.408C1046.36 997.757 1046.36 988.974 1046.36 988.974L1038.1 830.972C1038.1 830.972 1036.45 664.186 1036.45 659.232C1036.33 656.683 1036.8 654.14 1037.82 651.803V645.079L1031.5 621.251L1009.42 563.96Z" fill="#2F2E41"/>
<path d="M914.954 237.056C941.939 237.056 963.815 215.187 963.815 188.209C963.815 161.231 941.939 139.361 914.954 139.361C887.968 139.361 866.092 161.231 866.092 188.209C866.092 215.187 887.968 237.056 914.954 237.056Z" fill="#A0616A"/>
<path d="M939.384 269.341C949.911 275.598 956.208 287.093 959.823 298.79C966.515 320.446 970.543 342.836 971.818 365.467L975.636 433.217L1022.92 577.477C981.941 612.142 827.902 585.355 827.902 585.355C827.902 585.355 823.173 583.78 827.902 579.052C832.63 574.325 837.233 578.513 832.505 573.786C827.776 569.059 831.036 574.325 832.612 569.598C834.188 564.871 832.612 568.022 831.036 566.446C829.46 564.87 843.238 550.689 843.238 550.689L830.629 467.883L814.867 300.856C833.781 277.22 871.82 263.287 871.82 263.287L881.648 245.6L930.792 249.53L939.384 269.341Z" fill="#3F3D56"/>
<path d="M955.232 162.257C959.03 165.089 961.843 169.04 963.276 173.554C963.827 166.177 963.862 158.77 963.381 151.388C962.805 146.201 959.152 145.034 954.922 143.682C951.102 142.46 946.782 141.08 945.619 136.045C930.26 121.107 903.523 121.86 885.225 127.071C875.156 129.938 869.362 133.622 868.844 135.78L868.737 136.224L868.328 136.428C860.567 140.308 859.056 152.559 859.156 162.152C859.345 180.228 865.587 200.757 869.104 202.424C869.29 202.513 869.338 202.478 869.418 202.411C874.714 198.18 881.174 202.732 884.013 205.207C885.688 193.973 891.08 183.624 899.328 175.813C907.576 168.002 918.205 163.179 929.516 162.115C933.21 161.758 936.875 161.144 940.483 160.277C942.314 159.803 944.195 159.556 946.086 159.542C949.34 159.492 952.532 160.44 955.232 162.257Z" fill="#2F2E41"/>
<path d="M1258.56 602.883L1352.55 507.463L1377.31 431.148L1337.46 415.034C1317.72 434.941 1297.4 495.882 1297.4 495.882L1233.25 581.958C1232.74 582.149 1232.22 582.35 1231.72 582.588C1228.77 583.982 1226.22 586.114 1224.34 588.778C1222.45 591.443 1221.28 594.549 1220.94 597.797C1220.6 601.045 1221.11 604.324 1222.41 607.319C1223.72 610.314 1225.77 612.922 1228.37 614.892C1230.98 616.862 1234.05 618.127 1237.28 618.565C1240.52 619.003 1243.81 618.598 1246.85 617.391C1249.88 616.183 1252.56 614.214 1254.61 611.672C1256.66 609.131 1258.02 606.103 1258.56 602.883Z" fill="#FFB8B8"/>
<path d="M1326.59 423.764L1376.99 438.338L1377.17 438.302C1395.7 434.706 1410.35 403.93 1419.38 378.746C1422.35 370.439 1422.06 361.314 1418.56 353.217C1415.06 345.119 1408.61 338.652 1400.52 335.124C1394.54 332.562 1387.96 331.724 1381.52 332.705C1375.09 333.686 1369.05 336.446 1364.11 340.675L1338.98 362.306L1326.59 423.764Z" fill="#6C63FF"/>
<path d="M1283.47 1070.81L1256.37 1070.81L1243.48 966.303L1283.48 966.305L1283.47 1070.81Z" fill="#FFB8B8"/>
<path d="M1290.39 1061.97L1282.76 1061.97L1252.98 1049.86L1237.01 1061.96H1237.01C1227.99 1061.96 1219.34 1065.55 1212.96 1071.92C1206.58 1078.3 1203 1086.95 1203 1095.97V1097.07L1290.39 1097.08L1290.39 1061.97Z" fill="#2F2E41"/>
<path d="M1403.73 1070.81L1376.63 1070.81L1363.74 966.303L1403.74 966.305L1403.73 1070.81Z" fill="#FFB8B8"/>
<path d="M1410.65 1061.97L1403.02 1061.97L1373.23 1049.86L1357.27 1061.96H1357.27C1348.25 1061.96 1339.6 1065.55 1333.22 1071.92C1326.84 1078.3 1323.26 1086.95 1323.25 1095.97V1097.07L1410.64 1097.08L1410.65 1061.97Z" fill="#2F2E41"/>
<path d="M1445.06 620.655C1445.06 620.655 1448.22 658.621 1440.31 695.005C1432.4 731.389 1432.4 833.858 1432.4 833.858L1414.99 1033.53L1362.78 1028.79L1348.54 695.005L1297.9 807.32L1302.65 823.14L1296.32 827.094C1296.32 827.094 1301.06 857.942 1297.9 857.942C1294.74 857.942 1286.82 862.687 1286.82 862.687L1293.15 1025.62L1239.35 1024.04L1220.36 794.665L1240.94 663.367L1242.52 638.056L1249.64 638.349L1253.26 627.774L1259.92 609.582L1445.06 620.655Z" fill="#2F2E41"/>
<path d="M1447.79 628.63L1448.08 628.234C1463.14 607.153 1440.49 556.497 1437.07 549.153L1451.46 544.485L1448.22 516.947L1446.68 504.671L1457.68 493.675L1457.71 493.401L1464.04 438.034L1473.24 401.26C1476.71 387.358 1476.42 372.784 1472.39 359.034C1468.36 345.284 1460.74 332.854 1450.32 323.018L1429.05 302.967L1403.2 264.726H1361.51L1347.21 291.719C1333.36 294.921 1321.06 302.882 1312.47 314.215C1303.88 325.549 1299.54 339.536 1300.2 353.74L1303.44 424.535L1290.76 512.68L1290.75 528.632L1276.48 544.49L1279.59 560.068L1268.73 564.722L1263.93 587.098C1261.95 589.716 1248.85 607.18 1248.85 611.955C1248.85 612.672 1249.38 613.364 1250.51 614.133C1259.44 620.177 1308.79 632.5 1330.63 623.762C1353.9 614.462 1446.38 628.414 1447.31 628.556L1447.79 628.63Z" fill="#1979B0"/>
<path d="M1376.97 252.381C1407.46 252.381 1432.18 227.668 1432.18 197.183C1432.18 166.699 1407.46 141.986 1376.97 141.986C1346.47 141.986 1321.76 166.699 1321.76 197.183C1321.76 227.668 1346.47 252.381 1376.97 252.381Z" fill="#FFB8B8"/>
<path d="M1371.68 253.274C1380.23 253.187 1388.76 252.37 1397.17 250.831C1405.5 248.913 1423.87 234.71 1428.88 226.319C1432.6 220.085 1434.83 210.442 1436.05 203.451C1437.69 194.199 1437.38 184.704 1435.12 175.582C1432.86 166.46 1428.71 157.914 1422.94 150.498C1420.71 147.39 1417.69 144.942 1414.19 143.412C1413.88 143.3 1413.56 143.202 1413.24 143.119C1408.16 141.923 1403.55 139.237 1400.02 135.406C1399.33 134.63 1398.59 133.905 1397.8 133.236C1393.83 130.058 1389.16 127.865 1384.18 126.835C1376.13 124.903 1364.62 127.324 1349.97 134.036C1342.61 137.409 1334.44 136.468 1328.14 135.272C1327.79 135.213 1327.42 135.248 1327.09 135.372C1326.75 135.497 1326.46 135.707 1326.23 135.982C1323.63 138.552 1320.15 140.042 1316.5 140.154C1314.26 140.31 1311.99 143.469 1309.26 147.583C1308.64 148.517 1307.91 149.607 1307.39 150.272L1307.28 149.023L1306.05 150.451C1304.12 152.696 1302.78 155.393 1302.17 158.292C1301.56 161.191 1301.7 164.197 1302.56 167.03C1303.43 169.863 1305 172.432 1307.12 174.496C1309.25 176.561 1311.86 178.054 1314.72 178.837C1316.98 179.378 1319.3 179.686 1321.63 179.757C1323.04 179.847 1324.5 179.94 1325.91 180.147C1330.41 180.949 1334.64 182.905 1338.16 185.826C1341.68 188.746 1344.39 192.53 1346.02 196.808C1346.4 197.797 1347.01 198.685 1347.79 199.402C1348.57 200.12 1349.5 200.648 1350.52 200.947C1351.54 201.245 1352.61 201.306 1353.66 201.124C1354.7 200.942 1355.69 200.523 1356.55 199.898C1357.98 198.728 1359.66 197.92 1361.47 197.542C1363.28 197.165 1365.15 197.23 1366.92 197.732C1368.46 198.539 1369.68 199.852 1370.37 201.451C1371.21 203.23 1372.56 204.721 1374.24 205.732C1379.99 208.51 1380.72 221.453 1378.96 232.304C1377.26 242.763 1373.57 250.393 1369.99 250.858C1367.23 251.216 1366.92 251.421 1366.73 251.915L1366.56 252.358L1366.88 252.759C1368.43 253.274 1370.06 253.449 1371.68 253.274Z" fill="#2F2E41"/>
<path d="M1325.87 429.667L1299.33 395.861C1272.3 403.303 1224.33 446.046 1224.33 446.046L1125.82 488.783C1122.54 488.23 1119.16 488.554 1116.04 489.72C1112.91 490.886 1110.15 492.855 1108.03 495.427C1105.91 497.999 1104.51 501.084 1103.96 504.372C1103.41 507.659 1103.74 511.033 1104.91 514.154C1106.08 517.275 1108.05 520.033 1110.63 522.149C1113.2 524.266 1116.29 525.667 1119.58 526.211C1122.87 526.756 1126.24 526.424 1129.36 525.251C1132.48 524.077 1135.24 522.102 1137.35 519.525L1266.4 483.534L1325.87 429.667Z" fill="#FFB8B8"/>
<path d="M1319.51 437.396L1361.39 390.728L1363.71 357.661C1364.14 351.167 1362.75 344.682 1359.69 338.939C1356.63 333.195 1352.02 328.422 1346.39 325.158C1338.73 320.785 1329.69 319.484 1321.1 321.519C1312.52 323.554 1305.02 328.772 1300.14 336.119C1285.34 358.413 1269.42 388.555 1277.61 405.549L1277.7 405.721L1319.51 437.396Z" fill="#1979B0"/>
<path d="M933.549 612.805L824.713 557.08C816.971 553.116 814.407 542.603 818.996 533.644L889.96 395.122C894.55 386.163 904.582 382.099 912.323 386.063L1021.16 441.787C1028.9 445.751 1031.47 456.265 1026.88 465.224L955.913 603.745C951.323 612.704 941.291 616.768 933.549 612.805Z" fill="#E6E6E6"/>
<path d="M914.953 587.187L841.009 549.327C833.758 545.615 831.356 535.769 835.654 527.378L894.61 412.297C898.908 403.906 908.304 400.101 915.554 403.813L1004.86 449.54C1012.12 453.252 1014.52 463.098 1010.22 471.489L978.19 534.007C959.044 571.381 947.249 603.723 914.953 587.187Z" fill="white"/>
<path d="M951.513 524.341L886.018 490.808C885.217 490.237 884.649 489.398 884.416 488.443C884.183 487.488 884.301 486.481 884.749 485.606C885.198 484.731 885.946 484.046 886.857 483.677C887.768 483.308 888.782 483.279 889.713 483.595L955.208 517.129C956.009 517.699 956.578 518.539 956.811 519.494C957.044 520.449 956.925 521.456 956.477 522.331C956.029 523.206 955.281 523.89 954.369 524.259C953.458 524.629 952.444 524.658 951.513 524.341Z" fill="#1979B0"/>
<path d="M893.665 512.711L878.718 505.058C877.917 504.488 877.348 503.648 877.115 502.693C876.882 501.738 877.001 500.731 877.449 499.856C877.897 498.981 878.646 498.296 879.557 497.927C880.468 497.558 881.482 497.529 882.413 497.845L897.36 505.498C898.161 506.068 898.729 506.908 898.962 507.863C899.195 508.818 899.077 509.825 898.629 510.7C898.18 511.575 897.432 512.259 896.521 512.629C895.61 512.998 894.596 513.027 893.665 512.711Z" fill="#6C63FF"/>
<path d="M912.837 540.515L871.418 519.308C870.617 518.738 870.048 517.898 869.815 516.943C869.582 515.988 869.701 514.981 870.149 514.106C870.597 513.231 871.345 512.547 872.257 512.177C873.168 511.808 874.182 511.779 875.113 512.095L916.532 533.302C917.333 533.872 917.902 534.712 918.135 535.667C918.367 536.622 918.249 537.629 917.801 538.504C917.352 539.379 916.604 540.064 915.693 540.433C914.782 540.802 913.768 540.831 912.837 540.515Z" fill="#1979B0"/>
<path d="M977.431 473.749L911.936 440.216C911.135 439.645 910.567 438.806 910.334 437.851C910.101 436.896 910.219 435.889 910.667 435.014C911.116 434.139 911.864 433.454 912.775 433.085C913.686 432.716 914.7 432.687 915.631 433.003L981.126 466.537C981.927 467.107 982.496 467.947 982.729 468.902C982.962 469.857 982.843 470.864 982.395 471.739C981.947 472.614 981.199 473.298 980.288 473.667C979.376 474.036 978.362 474.066 977.431 473.749Z" fill="#1979B0"/>
<path d="M919.583 462.118L904.636 454.466C903.835 453.895 903.266 453.056 903.033 452.101C902.801 451.146 902.919 450.139 903.367 449.264C903.816 448.389 904.564 447.704 905.475 447.335C906.386 446.966 907.4 446.937 908.331 447.253L923.278 454.906C924.079 455.476 924.647 456.315 924.88 457.271C925.113 458.226 924.995 459.233 924.547 460.108C924.098 460.983 923.35 461.667 922.439 462.036C921.528 462.406 920.514 462.435 919.583 462.118Z" fill="#1979B0"/>
<path d="M938.755 489.922L897.336 468.716C896.535 468.145 895.966 467.306 895.733 466.351C895.5 465.396 895.619 464.389 896.067 463.514C896.515 462.639 897.263 461.954 898.175 461.585C899.086 461.216 900.1 461.187 901.031 461.503L942.45 482.71C943.251 483.28 943.82 484.119 944.053 485.075C944.286 486.03 944.167 487.037 943.719 487.912C943.271 488.787 942.522 489.471 941.611 489.84C940.7 490.21 939.686 490.239 938.755 489.922Z" fill="#1979B0"/>
<path d="M843.361 492.208L818.774 400.698L884.478 388.264L880.945 451.075L967.275 539.943C971.846 539.756 976.372 540.902 980.302 543.243C984.231 545.583 987.395 549.016 989.407 553.123C991.419 557.23 992.192 561.833 991.632 566.371C991.073 570.91 989.204 575.188 986.255 578.683C983.305 582.178 979.402 584.74 975.021 586.056C970.64 587.372 965.971 587.385 961.583 586.094C957.195 584.803 953.278 582.263 950.308 578.785C947.339 575.306 945.446 571.039 944.861 566.504L843.361 492.208Z" fill="#A0616A"/>
<path d="M812.05 298.097C789.748 315.699 818.373 414.155 818.373 414.155C822.805 409.293 827.955 481.157 833.372 478.71C848.768 471.755 876.987 447.773 887.867 449.728C894.088 450.846 887.57 402.194 887.57 402.194C887.57 402.194 886.371 374.298 884.118 338.436C883.669 328.286 880.658 318.414 875.366 309.74C870.075 301.065 862.674 293.871 853.852 288.825C853.852 288.825 834.353 280.495 812.05 298.097Z" fill="#3F3D56"/>
<path d="M1183.14 695.321L1123.75 667.284C1122.48 666.687 1121.36 665.811 1120.48 664.721C1119.6 663.631 1118.97 662.355 1118.65 660.989C1118.33 659.653 1118.32 658.261 1118.61 656.918C1118.9 655.575 1119.5 654.316 1120.34 653.236C1137.55 631.254 1149.36 605.549 1154.84 578.181C1155.25 576.085 1156.38 574.198 1158.03 572.84C1159.68 571.483 1161.75 570.74 1163.89 570.737C1194.18 570.84 1216.81 581.898 1231.17 603.597C1231.93 604.726 1232.43 606.006 1232.64 607.349C1232.85 608.691 1232.77 610.064 1232.39 611.37C1224.08 640.011 1211.43 667.211 1194.89 692.025C1193.66 693.901 1191.79 695.269 1189.63 695.875C1187.47 696.481 1185.17 696.284 1183.14 695.321Z" fill="#E6E6E6"/>
<path d="M1200.62 655.997L1155.2 634.559C1154.07 634.026 1153.2 633.066 1152.78 631.89C1152.36 630.714 1152.42 629.419 1152.96 628.29C1153.49 627.16 1154.45 626.289 1155.63 625.868C1156.8 625.446 1158.1 625.509 1159.23 626.042L1204.64 647.48C1205.2 647.744 1205.7 648.116 1206.11 648.574C1206.53 649.032 1206.85 649.567 1207.06 650.149C1207.27 650.731 1207.36 651.349 1207.33 651.967C1207.3 652.584 1207.15 653.19 1206.89 653.749C1206.62 654.309 1206.25 654.81 1205.79 655.226C1205.33 655.642 1204.8 655.963 1204.22 656.172C1203.63 656.381 1203.02 656.472 1202.4 656.443C1201.78 656.413 1201.17 656.261 1200.62 655.997Z" fill="white"/>
<path d="M1207.67 641.062L1162.26 619.624C1161.13 619.091 1160.26 618.131 1159.84 616.955C1159.41 615.779 1159.48 614.484 1160.01 613.355C1160.54 612.225 1161.5 611.354 1162.68 610.932C1163.86 610.511 1165.15 610.574 1166.28 611.107L1211.69 632.545C1212.82 633.078 1213.69 634.038 1214.12 635.214C1214.54 636.39 1214.47 637.685 1213.94 638.814C1213.41 639.944 1212.45 640.815 1211.27 641.237C1210.09 641.658 1208.8 641.595 1207.67 641.062Z" fill="white"/>
<path d="M561.489 399.613C566.303 392.379 563.453 382.024 555.124 376.484C546.795 370.945 536.141 372.318 531.327 379.552C526.512 386.786 529.362 397.141 537.691 402.681C546.02 408.22 556.675 406.847 561.489 399.613Z" fill="#CCCCCC"/>
<path d="M1586.6 660.851C1591.41 653.617 1588.56 643.262 1580.23 637.722C1571.9 632.182 1561.25 633.556 1556.43 640.79C1551.62 648.023 1554.47 658.379 1562.8 663.918C1571.13 669.458 1581.78 668.085 1586.6 660.851Z" fill="#CCCCCC"/>
</g>
<defs>
<clipPath id="clip0_49_647">
<rect width="1728" height="1117" fill="white"/>
</clipPath>
</defs>
</svg>
